<?xml version="1.0" encoding="UTF-8" standalone="no"?>
<svg
   viewBox="0 0 41 41"
   shape-rendering="crispEdges"
   version="1.1"
   id="svg62"
   sodipodi:docname="qrcode.svg"
   inkscape:version="1.2.2 (b0a8486541, 2022-12-01)"
   xmlns:inkscape="http://www.inkscape.org/namespaces/inkscape"
   xmlns:sodipodi="http://sodipodi.sourceforge.net/DTD/sodipodi-0.dtd"
   xmlns="http://www.w3.org/2000/svg"
   xmlns:svg="http://www.w3.org/2000/svg">
  <defs
     id="defs66" />
  <sodipodi:namedview
     id="namedview64"
     pagecolor="#000000"
     bordercolor="#000000"
     borderopacity="0.25"
     inkscape:showpageshadow="2"
     inkscape:pageopacity="0"
     inkscape:pagecheckerboard="0"
     inkscape:deskcolor="#d1d1d1"
     showgrid="false"
     inkscape:zoom="16.280702"
     inkscape:cx="6.4800644"
     inkscape:cy="22.941271"
     inkscape:window-width="2560"
     inkscape:window-height="1372"
     inkscape:window-x="0"
     inkscape:window-y="0"
     inkscape:window-maximized="1"
     inkscape:current-layer="svg62" />
  <path
     stroke="#000000"
     d="M4 4.5h7m1 0h1m3 0h1m1 0h5m4 0h1m2 0h7M4 5.5h1m5 0h1m2 0h2m5 0h2m1 0h1m2 0h1m3 0h1m5 0h1M4 6.5h1m1 0h3m1 0h1m2 0h1m3 0h1m2 0h1m4 0h1m1 0h2m1 0h1m1 0h3m1 0h1M4 7.5h1m1 0h3m1 0h1m1 0h1m1 0h2m2 0h2m1 0h2m1 0h1m2 0h2m1 0h1m1 0h3m1 0h1M4 8.5h1m1 0h3m1 0h1m1 0h1m1 0h1m2 0h2m2 0h4m1 0h2m2 0h1m1 0h3m1 0h1M4 9.5h1m5 0h1m1 0h1m1 0h4m2 0h1m2 0h1m1 0h1m4 0h1m5 0h1M4 10.5h7m1 0h1m1 0h1m1 0h1m1 0h1m1 0h1m1 0h1m1 0h1m1 0h1m1 0h1m1 0h7M12 11.5h1m6 0h3m3 0h2m1 0h1M4 12.5h1m3 0h1m1 0h6m4 0h2m1 0h3m1 0h1m1 0h5m2 0h1M4 13.5h3m2 0h1m1 0h1m2 0h7m1 0h1m4 0h1m1 0h1m3 0h2M5 14.5h1m1 0h1m2 0h2m1 0h2m1 0h1m2 0h1m1 0h1m4 0h2m1 0h1m3 0h1M6 15.5h2m1 0h1m1 0h2m1 0h3m1 0h1m2 0h7m1 0h1M5 16.5h2m3 0h1m1 0h4m1 0h3m2 0h7m1 0h1m1 0h2m1 0h2M4 17.5h2m2 0h1m2 0h3m3 0h1m2 0h1m2 0h1m1 0h1m1 0h1m1 0h1m1 0h1m2 0h1M10 18.5h5m3 0h1m1 0h4m3 0h5m1 0h3M6 19.5h1m1 0h1m7 0h3m2 0h1m1 0h4m2 0h2m1 0h2M5 20.5h3m1 0h4m1 0h3m1 0h2m1 0h1m2 0h3m1 0h1m1 0h1m1 0h2m1 0h1M4 21.5h1m1 0h2m1 0h1m5 0h2m2 0h1m1 0h1m1 0h1m3 0h1m1 0h1m3 0h2M4 22.5h1m4 0h2m3 0h2m2 0h3m1 0h1m1 0h1m1 0h2m1 0h3m1 0h1M6 23.5h3m2 0h3m3 0h2m4 0h3m1 0h2m1 0h2m4 0h1M4 24.5h1m1 0h5m3 0h1m1 0h1m1 0h3m3 0h3m3 0h4m1 0h2M4 25.5h2m5 0h2m1 0h1m1 0h1m1 0h1m3 0h3m2 0h1m3 0h1m1 0h3M6 26.5h1m3 0h1m2 0h1m2 0h1m2 0h1m4 0h1m1 0h4m2 0h4M6 27.5h1m4 0h6m1 0h4m1 0h3m1 0h4m1 0h2m2 0h1M4 28.5h4m2 0h1m1 0h2m1 0h1m5 0h1m1 0h10m2 0h2M12 29.5h1m1 0h1m4 0h2m1 0h1m1 0h2m1 0h2m3 0h1m1 0h1M4 30.5h7m1 0h4m1 0h3m1 0h1m2 0h3m1 0h1m1 0h1m1 0h2M4 31.5h1m5 0h1m2 0h1m2 0h1m1 0h5m1 0h2m2 0h1m3 0h1m2 0h2M4 32.5h1m1 0h3m1 0h1m1 0h1m1 0h2m2 0h1m3 0h1m1 0h3m1 0h6m1 0h2M4 33.5h1m1 0h3m1 0h1m3 0h3m1 0h1m1 0h2m3 0h1m1 0h2m1 0h4M4 34.5h1m1 0h3m1 0h1m2 0h6m1 0h2m5 0h2m1 0h3M4 35.5h1m5 0h1m2 0h2m6 0h5m1 0h3M4 36.5h7m1 0h3m2 0h3m1 0h1m2 0h3m1 0h3m5 0h1"
     id="path60"
     style="fill:#f35e5e;fill-opacity:1;stroke:#ffffff;stroke-opacity:1" />
</svg>
